<?xml version="1.0" encoding="UTF-8" standalone="no"?>
<svg
   xmlns:dc="http://purl.org/dc/elements/1.1/"
   xmlns:cc="http://creativecommons.org/ns#"
   xmlns:rdf="http://www.w3.org/1999/02/22-rdf-syntax-ns#"
   xmlns:svg="http://www.w3.org/2000/svg"
   xmlns="http://www.w3.org/2000/svg"
   xmlns:sodipodi="http://sodipodi.sourceforge.net/DTD/sodipodi-0.dtd"
   xmlns:inkscape="http://www.inkscape.org/namespaces/inkscape"
   viewBox="0 0 24 24"
   version="1.1"
   id="svg10"
   sodipodi:docname="grive-utils-error.svg"
   inkscape:version="0.92.2 (5c3e80d, 2017-08-06)">
  <metadata
     id="metadata16">
    <rdf:RDF>
      <cc:Work
         rdf:about="">
        <dc:format>image/svg+xml</dc:format>
        <dc:type
           rdf:resource="http://purl.org/dc/dcmitype/StillImage" />
        <dc:title></dc:title>
      </cc:Work>
    </rdf:RDF>
  </metadata>
  <defs
     id="defs14" />
  <sodipodi:namedview
     pagecolor="#ffffff"
     bordercolor="#666666"
     borderopacity="1"
     objecttolerance="10"
     gridtolerance="10"
     guidetolerance="10"
     inkscape:pageopacity="0"
     inkscape:pageshadow="2"
     inkscape:window-width="1366"
     inkscape:window-height="692"
     id="namedview12"
     showgrid="false"
     inkscape:zoom="9.8333333"
     inkscape:cx="15.240701"
     inkscape:cy="12"
     inkscape:window-x="0"
     inkscape:window-y="0"
     inkscape:window-maximized="1"
     inkscape:current-layer="svg10" />
  <g
     transform="translate(0.01112805,-40.003561)"
     id="g8">
    <polygon
       transform="matrix(1.3003381e-4,0,0,1.1890306e-4,3.6740877,46.289163)"
       points="133156,76894 110963,115341 22194,115341 44385,76894 "
       style="fill:#ececec;opacity:0.4;fill-opacity:1;fill-rule:evenodd"
       id="polygon2" />
    <polygon
       transform="matrix(1.285236e-4,0,0,1.3376526e-4,3.8751837,44.003561)"
       points="88772,76894 133156,76894 88772,0 44385,0 "
       style="fill:#ececec;opacity:0.4;fill-opacity:1;fill-rule:evenodd"
       id="polygon4" />
    <path
       d="m 8.667 44.918 -5.678 9.172 2.659 5.332 5.529 -9.704 z"
       style="fill:#ececec;opacity:0.4;fill-opacity:1;fill-rule:evenodd"
       id="path6" />
  </g>
  <path
     id="path260"
     style="fill:#dc322f;fill-opacity:1;fill-rule:evenodd"
     d="m 9.3898303,18 c 0,2.209 -1.791,4 -4,4 -2.209,0 -4,-1.791 -4,-4 0,-2.209 1.791,-4 4,-4 2.209,0 4,1.791 4,4"
     inkscape:connector-curvature="0" />
  <path
     id="path262"
     style="fill:#ffffff;fill-opacity:0.9020004"
     d="m 4.3898303,15 h 2 v 3 h -2 v -3"
     inkscape:connector-curvature="0" />
  <path
     id="path264"
     style="fill:#ffffff;fill-opacity:0.9020004;fill-rule:evenodd"
     d="m 4.3898303,20 c 0,-0.551 0.449,-1 1,-1 0.551,0 1,0.449 1,1 0,0.551 -0.449,1 -1,1 -0.551,0 -1,-0.449 -1,-1 z"
     inkscape:connector-curvature="0" />
</svg>
